<svg xmlns="http://www.w3.org/2000/svg" viewBox="0 0 1496.25 265.25"><defs><style>.cls-1{fill:#a5a5a5;}</style></defs><title>pokerate-logo</title><g id="Layer_2" data-name="Layer 2"><g id="Layer_1-2" data-name="Layer 1"><path class="cls-1" d="M87.58,172V105.58q22.82,0,22.82-17.45,0-15.94-17.44-15.95-17.62,0-17.63,21.89V259.58H0V101.87q0-24.5,4.92-40.18A80.72,80.72,0,0,1,21.71,32.47,94.37,94.37,0,0,1,55.11,8.72,102.73,102.73,0,0,1,96.48,0q38.59,0,64.85,26t26.26,64.38q0,37.29-23.57,60.49-21.53,21.35-64.94,21.34Z"/><path class="cls-1" d="M247.34,147.25a56,56,0,0,1,104.61,0H395.6a98,98,0,0,0-191.91,0Z"/><path class="cls-1" d="M352,187.25a56,56,0,0,1-104.61,0H203.69a98,98,0,0,0,191.91,0Z"/><circle class="cls-1" cx="299.65" cy="167.25" r="36"/><path class="cls-1" d="M495.22,6.31V259.58H425.83V6.31ZM601.54,74.59l-33.95,67.35,50.47,117.64H541.24L497.82,138.79l31.55-64.2Z"/><path class="cls-1" d="M812.51,178.31H707.3a48.62,48.62,0,0,1,.93-32.84h35.26q-3.72-20.59-23.2-20.6-13,0-21.15,11T691,164.21q0,18,7.88,29.13t20.69,11.13q10.4,0,20-10.39l39.52,47.5q-27.65,21.71-61.41,21.71-41.21,0-69.21-27.65t-28-68.46q0-40.64,28.29-68.65t69.49-28q40.26,0,67.63,27.37t27.37,67.44Q813.25,169.4,812.51,178.31Z"/><path class="cls-1" d="M942.76,72.73V147q-7.23-4.08-13.17-4.08-18.93,0-18.93,28.95v87.76H841.27V158.46q0-40.08,21.89-63.92t58.45-23.85A142.28,142.28,0,0,1,942.76,72.73Z"/><path class="cls-1" d="M1066,190.19V262a91.65,91.65,0,0,1-15.59,1.49q-41.75,0-69.58-27.46T953,167.18q0-40.26,28.11-68.28t68.37-28q44.91,0,70.79,26.25t25.88,71.72v90.73h-69.39V173.86q0-14.66-7.14-23.38t-19.21-8.72a27.25,27.25,0,0,0-26.9,26.9q0,11.51,7.23,18.93t18.37,7.42A31.57,31.57,0,0,0,1066,190.19Z"/><path class="cls-1" d="M1248.36,6.31V77.19h31.17v73.29h-31.17q0,22.08,7,30.43t25.51,8.35v72.92q-5.38.18-8,.18a94.3,94.3,0,0,1-44.44-10.94,90,90,0,0,1-33.49-29.69q-16-23.94-16-63.46V6.31Z"/><path class="cls-1" d="M1495.51,178.31H1390.3a48.62,48.62,0,0,1,.93-32.84h35.25q-3.7-20.59-23.19-20.6-13,0-21.15,11t-8.16,28.3q0,18,7.88,29.13t20.69,11.13q10.4,0,20-10.39l39.52,47.5q-27.64,21.71-61.42,21.71-41.19,0-69.21-27.65t-28-68.46q0-40.64,28.29-68.65t69.49-28q40.26,0,67.63,27.37t27.37,67.44Q1496.25,169.4,1495.51,178.31Z"/></g></g></svg>